<svg xmlns="http://www.w3.org/2000/svg" viewBox="0 0 32 32" fill="none">
  <path d="M7 17C4.8 17 3 15.4 3 13.2C3 11.4 4.3 9.8 6 9.5C6 9.2 6 9 6 8.7C6 5.8 8.2 3.5 11 3.5C13.2 3.5 15 4.9 15.8 6.8C16.2 6.7 16.6 6.7 17 6.7C20.5 6.7 23 9.3 23 12.8C24.7 13.2 26 14.9 26 16.8C26 19 24.2 21 21.5 21H7C4.8 21 3 19.2 3 17Z" fill="#CFD8DC" stroke="#B0BEC5" stroke-width="0.5"/>
  <circle cx="10" cy="25" r="1.5" fill="#90CAF9"/>
  <circle cx="16" cy="27" r="1.5" fill="#90CAF9"/>
  <circle cx="22" cy="25" r="1.5" fill="#90CAF9"/>
  <circle cx="13" cy="23" r="1.5" fill="#90CAF9"/>
  <circle cx="19" cy="23" r="1.5" fill="#90CAF9"/>
</svg>
